<?xml version="1.0" encoding="UTF-8"?>
<svg width="500px" height="680px" viewBox="0 0 500 680" version="1.1" xmlns="http://www.w3.org/2000/svg" xmlns:xlink="http://www.w3.org/1999/xlink">
    <!-- Generator: Sketch 58 (84663) - https://sketch.com -->
    <title>観葉植物</title>
    <desc>Created with Sketch.</desc>
    <g id="観葉植物" stroke="none" stroke-width="1" fill="none" fill-rule="evenodd">
        <g id="Group-4" transform="translate(4.000000, 7.000000)" stroke="#000000" stroke-width="8">
            <circle id="Oval" fill="#D8D8D8" cx="253.302791" cy="347.002511" r="160"></circle>
            <circle id="Oval-Copy-7" fill="#AAAAAA" cx="253.302791" cy="347.002511" r="130"></circle>
            <path d="M173.426831,273.538509 C128.777481,244.888607 106.452806,208.7416 106.452806,165.097487 C106.452806,99.631318 106.452806,51.5025107 106.452806,51.5025107 C120.678122,51.5025107 150.381279,89.3675029 195.562276,165.097487 L173.426831,273.538509 Z" id="Path-7" fill="#EEEEEE"></path>
            <path d="M380.408783,128.871911 C316.460941,128.871911 284.487021,162.128393 284.487021,228.641357 C284.487021,228.641357 355.750267,216.541915 361.697506,198.002511 C365.662332,185.642908 371.899425,162.599375 380.408783,128.871911 Z" id="Path-9" fill="#EEEEEE"></path>
            <circle id="Oval" fill="#D8D8D8" cx="242.302791" cy="333.002511" r="14"></circle>
            <path d="M195.562276,435.237393 C198.289385,484.622513 148.70878,539.640159 46.8204617,600.29033 C46.8204617,600.29033 46.4847103,554.386829 117.514108,442.290902 C164.86704,367.560284 190.883096,365.209114 195.562276,435.237393 Z" id="Path-13" fill="#EEEEEE"></path>
            <path d="M162.881326,665.651994 C154.456831,661.076403 151.499385,483.202404 223.012536,425.602458 C270.687971,387.202493 286.634941,425.933062 270.853447,541.794165 C236.386187,597.239232 200.39548,638.525175 162.881326,665.651994 Z" id="Path-14" fill="#EEEEEE"></path>
            <path d="M490.044541,538.002511 C496.077125,527.156122 464.701343,460.439056 389.104804,426.96922 C338.707111,404.655996 327.570531,429.603459 355.695062,501.81161 C441.865952,532.043748 486.649111,544.107381 490.044541,538.002511 Z" id="Path-16" fill="#EEEEEE"></path>
            <path d="M299.404679,308.951616 C361.676481,305.043859 411.51765,236.731705 448.928189,104.015154 C448.928189,104.015154 328.410988,176.864331 328.410988,231.299593 C328.410988,267.589768 318.742218,293.473775 299.404679,308.951616 Z" id="Path-8" fill="#EEEEEE"></path>
            <path d="M239.78811,330.194975 C168.802702,285.747905 137.438524,252.60406 145.695575,230.76344 C158.081151,198.002511 230.544575,12.6684046 261.82894,0.181761654 C276.390665,-5.63031317 338.272665,129.154619 355.146532,230.76344 C359.7211,258.309972 335.682839,286.14185 283.031749,314.259076 L239.78811,330.194975 Z" id="Path-6" fill="#EEEEEE"></path>
            <path d="M296.464927,372.250034 C360.35327,352.495869 402.901057,350.352279 424.108287,365.819265 C429.986563,370.106445 432.034946,379.325732 430.253437,393.477127 C406.443936,437.031425 392.184118,458.808574 387.473984,458.808574 C382.76385,458.808574 380.408783,474.052962 380.408783,504.541738 L314.604632,518.631027 C278.584351,490.90318 261.787467,470.962362 264.213981,458.808574 C266.640495,446.654785 277.39081,417.801938 296.464927,372.250034 Z" id="Path-15" fill="#EEEEEE"></path>
            <path d="M303.478299,372.706427 C302.007692,357.973982 306.258668,344.914042 316.231227,333.526608 C329.82138,318.008327 349.133116,304.162552 374.166434,291.989282 L436.455623,362.948969 L303.478299,372.706427 Z" id="Path-10" fill="#EEEEEE"></path>
            <path d="M174.470289,343.964279 C139.43019,322.845488 118.185871,315.270906 110.737332,321.240533 C99.5645247,330.194975 1.27897692e-13,441.753209 1.27897692e-13,501.81161 C1.27897692e-13,501.81161 194.963276,471.804098 214.368345,432.740464 C227.305058,406.698042 214.005706,377.10598 174.470289,343.964279 Z" id="Path-12" fill="#EEEEEE"></path>
            <path d="M239.496072,332.347855 C225.552419,339.575289 204.852411,343.189006 177.396048,343.189006 C177.396048,343.189006 208.431904,558.362231 219.176307,561.638626 C234.229706,566.229004 321.704615,464.516107 321.704615,409.873071 C321.704615,397.909499 294.301767,372.06776 239.496072,332.347855 Z" id="Path-11" fill="#EEEEEE"></path>
        </g>
    </g>
</svg>