# Blender v2.82 (sub 7) OBJ File: 'room_01a.blend'
# www.blender.org
v -2.954891 0.653695 5.647749
v -2.970203 0.653695 5.651852
v -2.981413 0.653695 5.663062
v -2.985516 0.653695 5.678374
v -2.981413 0.653695 5.693686
v -2.970203 0.653695 5.704896
v -2.954891 0.653695 5.709000
v -2.939578 0.653695 5.704896
v -2.928369 0.653695 5.693686
v -2.924266 0.653695 5.678374
v -2.928369 0.653695 5.663062
v -2.939578 0.653695 5.651852
v -2.954891 0.748016 5.637633
v -2.975262 0.748016 5.643091
v -2.990174 0.748016 5.658003
v -2.995632 0.748016 5.678374
v -2.990174 0.748016 5.698745
v -2.975262 0.748016 5.713657
v -2.954891 0.748016 5.719115
v -2.934520 0.748016 5.713657
v -2.919608 0.748016 5.698745
v -2.914150 0.748016 5.678374
v -2.919608 0.748016 5.658003
v -2.934520 0.748016 5.643091
v -2.954891 0.653695 5.678374
v -2.921519 0.657498 5.678374
v -2.925990 0.657498 5.661689
v -2.954891 0.657498 5.711746
v -2.938205 0.657498 5.707275
v -2.988262 0.657498 5.678374
v -2.983792 0.657498 5.695060
v -2.938205 0.657498 5.649473
v -2.954891 0.657498 5.645002
v -2.971576 0.657498 5.649473
v -2.925990 0.657498 5.695060
v -2.971576 0.657498 5.707275
v -2.983792 0.657498 5.661689
v -2.954891 0.656665 5.649516
v -2.969320 0.656665 5.653382
v -2.979883 0.656665 5.663945
v -2.983749 0.656665 5.678374
v -2.979883 0.656665 5.692803
v -2.969320 0.656665 5.703366
v -2.954891 0.656665 5.707233
v -2.940462 0.656665 5.703366
v -2.929899 0.656665 5.692803
v -2.926032 0.656665 5.678374
v -2.929899 0.656665 5.663945
v -2.940462 0.656665 5.653382
v -2.954891 0.748266 5.641080
v -2.973538 0.748266 5.646077
v -2.987189 0.748266 5.659727
v -2.992186 0.748266 5.678374
v -2.987189 0.748266 5.697021
v -2.973538 0.748266 5.710672
v -2.954891 0.748266 5.715669
v -2.936244 0.748266 5.710672
v -2.922593 0.748266 5.697021
v -2.917596 0.748266 5.678374
v -2.922593 0.748266 5.659727
v -2.936244 0.748266 5.646077
v -2.954891 0.657151 5.678374
v -2.924783 0.658633 5.678374
v -2.928818 0.658633 5.663321
v -2.954891 0.658633 5.708481
v -2.939837 0.658633 5.704448
v -2.984998 0.658633 5.678374
v -2.980964 0.658633 5.693428
v -2.939837 0.658633 5.652301
v -2.954891 0.658633 5.648267
v -2.969944 0.658633 5.652301
v -2.928818 0.658633 5.693428
v -2.969944 0.658633 5.704448
v -2.980964 0.658633 5.663321
vn 0.8168 -0.3324 -0.4715
vn 0.8014 0.5980 0.0000
vn 0.9431 -0.3324 0.0000
vn 0.4715 -0.3324 0.8168
vn 0.0000 0.5980 0.8014
vn 0.0000 -0.3324 0.9431
vn -0.6941 0.5980 0.4007
vn -0.9431 -0.3324 0.0000
vn -0.8168 -0.3324 0.4715
vn 0.4007 0.5980 -0.6941
vn 0.4715 -0.3324 -0.8168
vn -0.4715 -0.3324 -0.8168
vn 0.0000 0.5980 -0.8014
vn 0.0000 -0.3324 -0.9431
vn 0.6941 0.5980 0.4007
vn 0.8168 -0.3324 0.4716
vn -0.4007 0.5980 0.6941
vn -0.4715 -0.3324 0.8168
vn -0.8168 -0.3324 -0.4715
vn -0.4007 0.5980 -0.6941
vn -0.8014 0.5980 0.0000
vn 0.4427 -0.8594 -0.2556
vn 0.5112 -0.8594 0.0000
vn 0.0000 -1.0000 0.0000
vn 0.2557 -0.8594 0.4427
vn 0.0000 -0.8594 0.5112
vn -0.4427 -0.8594 0.2556
vn -0.5112 -0.8594 0.0000
vn 0.2556 -0.8594 -0.4427
vn -0.2556 -0.8594 -0.4427
vn 0.0000 -0.8594 -0.5112
vn 0.4427 -0.8594 0.2556
vn -0.2556 -0.8594 0.4427
vn -0.4427 -0.8594 -0.2556
vn -0.9521 0.3058 0.0000
vn -0.4960 0.8197 0.2864
vn -0.8245 0.3058 0.4761
vn 0.0000 0.3058 -0.9521
vn -0.2864 0.8197 -0.4960
vn -0.4760 0.3059 -0.8245
vn 0.9521 0.3059 0.0000
vn 0.4960 0.8197 -0.2864
vn 0.8245 0.3058 -0.4761
vn -0.2864 0.8197 0.4960
vn -0.4760 0.3058 0.8245
vn 0.0000 0.3058 0.9521
vn 0.2864 0.8197 0.4960
vn 0.4760 0.3059 0.8245
vn -0.4960 0.8197 -0.2864
vn -0.8245 0.3058 -0.4761
vn 0.2864 0.8197 -0.4960
vn 0.4760 0.3059 -0.8245
vn 0.0000 0.8197 0.5727
vn 0.8245 0.3059 0.4761
vn 0.4960 0.8197 0.2864
vn -0.5727 0.8197 0.0000
vn 0.0000 0.8197 -0.5727
vn 0.5727 0.8197 0.0000
vn -0.4613 0.8463 0.2663
vn 0.0000 1.0000 0.0000
vn -0.5327 0.8463 0.0000
vn -0.2662 0.8464 -0.4612
vn 0.0000 0.8462 -0.5327
vn 0.4613 0.8463 -0.2663
vn 0.5326 0.8463 0.0000
vn -0.2663 0.8463 0.4613
vn 0.2663 0.8463 0.4613
vn 0.0000 0.8463 0.5326
vn -0.4613 0.8463 -0.2663
vn 0.2663 0.8464 -0.4612
vn 0.4612 0.8463 0.2663
vn -0.6941 0.5980 -0.4007
vn 0.4007 0.5980 0.6941
vn 0.6941 0.5980 -0.4007
s 1
f 27//1 22//2 26//3
f 29//4 19//5 28//6
f 17//7 30//8 31//9
f 24//10 27//1 32//11
f 34//12 13//13 33//14
f 21//15 29//4 35//16
f 18//17 31//9 36//18
f 13//13 32//11 33//14
f 37//19 14//20 34//12
f 22//2 35//16 26//3
f 19//5 36//18 28//6
f 16//21 37//19 30//8
f 11//22 10//23 25//24
f 8//25 7//26 25//24
f 5//27 4//28 25//24
f 12//29 11//22 25//24
f 2//30 1//31 25//24
f 9//32 8//25 25//24
f 6//33 5//27 25//24
f 1//31 12//29 25//24
f 3//34 2//30 25//24
f 10//23 9//32 25//24
f 7//26 6//33 25//24
f 4//28 3//34 25//24
f 30//8 3//34 4//28
f 7//26 36//18 6//33
f 10//23 35//16 9//32
f 3//34 34//12 2//30
f 1//31 32//11 12//29
f 6//33 31//9 5//27
f 9//32 29//4 8//25
f 34//12 1//31 2//30
f 32//11 11//22 12//29
f 31//9 4//28 5//27
f 29//4 7//26 8//25
f 27//1 10//23 11//22
f 63//35 60//36 64//37
f 65//38 57//39 66//40
f 67//41 54//42 68//43
f 64//37 61//44 69//45
f 70//46 51//47 71//48
f 66//40 58//49 72//50
f 68//43 55//51 73//52
f 69//45 50//53 70//46
f 74//54 51//47 52//55
f 63//35 58//49 59//56
f 65//38 55//51 56//57
f 67//41 52//55 53//58
f 48//59 62//60 47//61
f 45//62 62//60 44//63
f 42//64 62//60 41//65
f 49//66 62//60 48//59
f 39//67 62//60 38//68
f 46//69 62//60 45//62
f 43//70 62//60 42//64
f 38//68 62//60 49//66
f 40//71 62//60 39//67
f 47//61 62//60 46//69
f 44//63 62//60 43//70
f 41//65 62//60 40//71
f 40//71 67//41 41//65
f 43//70 65//38 44//63
f 47//61 72//50 63//35
f 39//67 74//54 40//71
f 38//68 69//45 70//46
f 43//70 68//43 73//52
f 45//62 72//50 46//69
f 38//68 71//48 39//67
f 48//59 69//45 49//66
f 41//65 68//43 42//64
f 45//62 65//38 66//40
f 47//61 64//37 48//59
f 13//13 51//47 50//53
f 15//72 51//47 14//20
f 16//21 52//55 15//72
f 16//21 54//42 53//58
f 17//7 55//51 54//42
f 18//17 56//57 55//51
f 19//5 57//39 56//57
f 20//73 58//49 57//39
f 22//2 58//49 21//15
f 23//74 59//56 22//2
f 23//74 61//44 60//36
f 13//13 61//44 24//10
f 27//1 23//74 22//2
f 29//4 20//73 19//5
f 17//7 16//21 30//8
f 24//10 23//74 27//1
f 34//12 14//20 13//13
f 21//15 20//73 29//4
f 18//17 17//7 31//9
f 13//13 24//10 32//11
f 37//19 15//72 14//20
f 22//2 21//15 35//16
f 19//5 18//17 36//18
f 16//21 15//72 37//19
f 30//8 37//19 3//34
f 7//26 28//6 36//18
f 10//23 26//3 35//16
f 3//34 37//19 34//12
f 1//31 33//14 32//11
f 6//33 36//18 31//9
f 9//32 35//16 29//4
f 34//12 33//14 1//31
f 32//11 27//1 11//22
f 31//9 30//8 4//28
f 29//4 28//6 7//26
f 27//1 26//3 10//23
f 63//35 59//56 60//36
f 65//38 56//57 57//39
f 67//41 53//58 54//42
f 64//37 60//36 61//44
f 70//46 50//53 51//47
f 66//40 57//39 58//49
f 68//43 54//42 55//51
f 69//45 61//44 50//53
f 74//54 71//48 51//47
f 63//35 72//50 58//49
f 65//38 73//52 55//51
f 67//41 74//54 52//55
f 40//71 74//54 67//41
f 43//70 73//52 65//38
f 47//61 46//69 72//50
f 39//67 71//48 74//54
f 38//68 49//66 69//45
f 43//70 42//64 68//43
f 45//62 66//40 72//50
f 38//68 70//46 71//48
f 48//59 64//37 69//45
f 41//65 67//41 68//43
f 45//62 44//63 65//38
f 47//61 63//35 64//37
f 13//13 14//20 51//47
f 15//72 52//55 51//47
f 16//21 53//58 52//55
f 16//21 17//7 54//42
f 17//7 18//17 55//51
f 18//17 19//5 56//57
f 19//5 20//73 57//39
f 20//73 21//15 58//49
f 22//2 59//56 58//49
f 23//74 60//36 59//56
f 23//74 24//10 61//44
f 13//13 50//53 61//44
