<svg width="204" height="36" viewBox="0 0 204 36" fill="none" xmlns="http://www.w3.org/2000/svg">
<path d="M26.6359 0.453125V4.29688H16.3234V35H10.6516V4.29688H0.339066V0.453125H26.6359ZM56.8516 35H51.0391L42.0859 9.125L33.0391 35H27.1797L39.2734 0.5H44.8516L56.8516 35ZM45.1797 24.0312L46.5391 27.8281H37.5859L38.8984 24.0312H45.1797ZM59.2234 0.453125H64.8484V35H59.2234V0.453125ZM82.6609 35H76.7078L70.1922 22.4844C70.0984 22.4844 69.9891 22.5 69.8641 22.5312C69.7703 22.5312 69.6141 22.5312 69.3953 22.5312C69.1766 22.5312 68.8484 22.5312 68.4109 22.5312C68.0047 22.5312 67.4578 22.5312 66.7703 22.5312V18.4062H69.9578C70.6453 18.4062 71.3328 18.2969 72.0203 18.0781C72.7078 17.8281 73.3328 17.4375 73.8953 16.9062C74.4578 16.375 74.9109 15.6406 75.2547 14.7031C75.5984 13.7344 75.7703 12.5469 75.7703 11.1406C75.7703 10.5781 75.6922 9.9375 75.5359 9.21875C75.3797 8.46875 75.0516 7.76562 74.5516 7.10938C74.0828 6.42188 73.4109 5.85938 72.5359 5.42188C71.6609 4.95312 70.5047 4.71875 69.0672 4.71875H66.7703V0.453125H69.1609C70.6297 0.453125 72.0828 0.6875 73.5203 1.15625C74.9578 1.625 76.2391 2.32812 77.3641 3.26562C78.5203 4.20312 79.4422 5.34375 80.1297 6.6875C80.8484 8 81.2078 9.48438 81.2078 11.1406C81.2078 13.6406 80.6297 15.7656 79.4734 17.5156C78.3172 19.2656 76.7547 20.5625 74.7859 21.4062L82.6609 35ZM90.7047 17C90.7047 19.4062 90.8609 21.4531 91.1734 23.1406C91.4859 24.7969 91.9391 26.1719 92.5328 27.2656C93.1266 28.3281 93.8297 29.125 94.6422 29.6562C95.4859 30.1875 96.4234 30.5 97.4547 30.5938V35.2344C95.5484 35.1094 93.8141 34.6562 92.2516 33.875C90.7203 33.0625 89.4234 31.9219 88.3609 30.4531C87.2984 28.9531 86.4703 27.125 85.8766 24.9688C85.2828 22.8125 84.9859 20.3438 84.9859 17.5625V0.453125H90.7047V17ZM111.845 0.453125V17.5625C111.845 20.3438 111.548 22.8125 110.955 24.9688C110.361 27.125 109.517 28.9531 108.423 30.4531C107.361 31.9219 106.064 33.0625 104.533 33.875C103.002 34.6562 101.283 35.1094 99.3766 35.2344V30.5938C100.408 30.4688 101.33 30.1562 102.142 29.6562C102.986 29.125 103.705 28.3281 104.298 27.2656C104.892 26.2031 105.345 24.8438 105.658 23.1875C106.002 21.5 106.173 19.4375 106.173 17V0.453125H111.845ZM115.202 0.453125H120.92L130.202 21.7812V30.4531H128.702L120.92 11.2344V35H115.202V0.453125ZM141.405 0.453125H147.123V35H141.405V11.2344L133.67 30.4531H132.123V21.875L141.405 0.453125ZM179.261 35H173.448L164.495 9.125L155.448 35H149.589L161.683 0.5H167.261L179.261 35ZM167.589 24.0312L168.948 27.8281H159.995L161.308 24.0312H167.589ZM181.867 0.453125H187.586V35H181.867V0.453125ZM202.023 19.4375H189.508V15.5938H202.023V19.4375ZM189.508 30.7344H203.477V35H189.508V30.7344ZM203.477 0.453125V4.71875H189.508V0.453125H203.477Z" fill="#94559A"/>
</svg>
