<svg width="1094" height="89" viewBox="0 0 1094 89" fill="none" xmlns="http://www.w3.org/2000/svg">
<path d="M66.1867 1.63281V11.2422H40.4055V88H26.2258V11.2422H0.444519V1.63281H66.1867ZM157.326 88H142.795L120.412 23.3125L97.7945 88H83.1461L113.38 1.75H127.326L157.326 88ZM128.146 60.5781L131.545 70.0703H109.162L112.443 60.5781H128.146ZM178.855 1.63281H192.918V88H178.855V1.63281ZM237.449 88H222.566L206.277 56.7109C206.043 56.7109 205.77 56.75 205.457 56.8281C205.223 56.8281 204.832 56.8281 204.285 56.8281C203.738 56.8281 202.918 56.8281 201.824 56.8281C200.809 56.8281 199.441 56.8281 197.723 56.8281V46.5156H205.691C207.41 46.5156 209.129 46.2422 210.848 45.6953C212.566 45.0703 214.129 44.0938 215.535 42.7656C216.941 41.4375 218.074 39.6016 218.934 37.2578C219.793 34.8359 220.223 31.8672 220.223 28.3516C220.223 26.9453 220.027 25.3438 219.637 23.5469C219.246 21.6719 218.426 19.9141 217.176 18.2734C216.004 16.5547 214.324 15.1484 212.137 14.0547C209.949 12.8828 207.059 12.2969 203.465 12.2969H197.723V1.63281H203.699C207.371 1.63281 211.004 2.21875 214.598 3.39062C218.191 4.5625 221.395 6.32031 224.207 8.66406C227.098 11.0078 229.402 13.8594 231.121 17.2188C232.918 20.5 233.816 24.2109 233.816 28.3516C233.816 34.6016 232.371 39.9141 229.48 44.2891C226.59 48.6641 222.684 51.9062 217.762 54.0156L237.449 88ZM273.159 43C273.159 49.0156 273.549 54.1328 274.33 58.3516C275.112 62.4922 276.245 65.9297 277.729 68.6641C279.213 71.3203 280.971 73.3125 283.002 74.6406C285.112 75.9688 287.455 76.75 290.034 76.9844V88.5859C285.268 88.2734 280.932 87.1406 277.026 85.1875C273.198 83.1562 269.955 80.3047 267.299 76.6328C264.643 72.8828 262.573 68.3125 261.088 62.9219C259.604 57.5312 258.862 51.3594 258.862 44.4062V1.63281H273.159V43ZM326.01 1.63281V44.4062C326.01 51.3594 325.268 57.5312 323.784 62.9219C322.299 68.3125 320.19 72.8828 317.455 76.6328C314.799 80.3047 311.557 83.1562 307.729 85.1875C303.901 87.1406 299.604 88.2734 294.838 88.5859V76.9844C297.416 76.6719 299.721 75.8906 301.752 74.6406C303.862 73.3125 305.659 71.3203 307.143 68.6641C308.627 66.0078 309.76 62.6094 310.541 58.4688C311.401 54.25 311.83 49.0938 311.83 43V1.63281H326.01ZM350.001 1.63281H364.298L387.501 54.9531V76.6328H383.751L364.298 28.5859V88H350.001V1.63281ZM415.509 1.63281H429.805V88H415.509V28.5859L396.173 76.6328H392.305V55.1875L415.509 1.63281ZM525.749 88H511.218L488.835 23.3125L466.218 88H451.57L481.804 1.75H495.749L525.749 88ZM496.57 60.5781L499.968 70.0703H477.585L480.866 60.5781H496.57ZM547.865 1.63281H562.162V88H547.865V1.63281ZM598.255 49.0938H566.966V39.4844H598.255V49.0938ZM566.966 77.3359H601.888V88H566.966V77.3359ZM601.888 1.63281V12.2969H566.966V1.63281H601.888ZM660.768 1.63281H675.065V88H660.768V1.63281ZM711.159 49.0938H679.87V39.4844H711.159V49.0938ZM679.87 77.3359H714.791V88H679.87V77.3359ZM714.791 1.63281V12.2969H679.87V1.63281H714.791ZM785.774 1.63281H800.071V88H785.774L756.712 36.9062V9.95312L785.774 61.1641V1.63281ZM737.61 88V1.63281H751.907V88H737.61ZM873.866 18.2734C871.991 16.0078 869.843 14.3672 867.421 13.3516C864.999 12.3359 862.499 11.8281 859.921 11.8281H859.452V0.226562H859.57C864.257 0.226562 868.632 1.00781 872.695 2.57031C876.757 4.13281 880.39 6.47656 883.593 9.60156L873.866 18.2734ZM823.593 44.4062C823.593 37.6875 824.374 31.75 825.937 26.5938C827.499 21.3594 829.648 16.9453 832.382 13.3516C835.116 9.67969 838.398 6.78906 842.226 4.67969C846.054 2.57031 850.195 1.24219 854.648 0.695312V12.4141C852.304 13.0391 850.116 14.0938 848.085 15.5781C846.132 17.0625 844.374 19.1328 842.812 21.7891C841.327 24.3672 840.155 27.5312 839.296 31.2812C838.437 34.9531 837.968 39.3281 837.89 44.4062C837.968 49.4844 838.437 53.9375 839.296 57.7656C840.155 61.5938 841.327 64.9141 842.812 67.7266C844.374 70.4609 846.132 72.6484 848.085 74.2891C850.116 75.9297 852.304 77.0625 854.648 77.6875V88.3516C850.195 87.8047 846.054 86.4766 842.226 84.3672C838.398 82.1797 835.116 79.25 832.382 75.5781C829.648 71.9062 827.499 67.4922 825.937 62.3359C824.374 57.1016 823.593 51.125 823.593 44.4062ZM888.046 43.4688V76.8672C886.249 79.1328 884.218 81.0078 881.952 82.4922C879.765 83.8984 877.421 85.0703 874.921 86.0078C872.499 86.9453 869.96 87.6094 867.304 88C864.726 88.3906 862.148 88.5859 859.57 88.5859H859.452V78.2734C860.39 78.2734 861.523 78.2344 862.851 78.1562C864.257 78 865.663 77.8047 867.07 77.5703C868.554 77.2578 869.921 76.8672 871.171 76.3984C872.499 75.9297 873.476 75.2656 874.101 74.4062V53.0781H859.452V43.4688H888.046ZM926.451 88H912.154V1.63281H926.451V88ZM999.777 1.63281H1014.07V88H999.777L970.715 36.9062V9.95312L999.777 61.1641V1.63281ZM951.613 88V1.63281H965.91V88H951.613ZM1039.47 1.63281H1053.77V88H1039.47V1.63281ZM1089.86 49.0938H1058.57V39.4844H1089.86V49.0938ZM1058.57 77.3359H1093.49V88H1058.57V77.3359ZM1093.49 1.63281V12.2969H1058.57V1.63281H1093.49Z" fill="white" fill-opacity="0.9"/>
</svg>
